<svg data-v-423bf9ae="" xmlns="http://www.w3.org/2000/svg" viewBox="0 0 246.1224332902396 60" class="font"><!----><!----><defs data-v-423bf9ae=""><linearGradient data-v-423bf9ae="" gradientTransform="rotate(25)" id="f360ca07-dc6c-495a-8e76-d5821fdbe2db" x1="0%" y1="0%" x2="100%" y2="0%"><stop data-v-423bf9ae="" offset="0%" style="stop-color: rgb(0, 118, 221); stop-opacity: 1;"></stop><stop data-v-423bf9ae="" offset="100%" style="stop-color: rgb(0, 205, 233); stop-opacity: 1;"></stop></linearGradient></defs><g data-v-423bf9ae="" id="0252269c-eb7c-4061-9346-a95c1e7778a5" fill="url(#f360ca07-dc6c-495a-8e76-d5821fdbe2db)" transform="matrix(5.102040717026833,0,0,5.102040717026833,-1.8367375252597071,-19.33673412290429)"><path d="M3.05 5.80L3.05 5.80Q4.01 5.80 4.55 6.03L4.55 6.03L4.55 6.03Q5.08 6.26 5.54 6.72L5.54 6.72L4.48 7.92L4.48 7.92Q4.01 7.37 3.32 7.37L3.32 7.37L3.32 7.37Q2.63 7.37 2.39 7.63L2.39 7.63L2.39 7.63Q2.16 7.88 2.39 8.09L2.39 8.09L2.39 8.09Q2.63 8.30 3.32 8.44L3.32 8.44L3.32 8.44Q4.33 8.53 4.98 9.02L4.98 9.02L4.98 9.02Q5.63 9.50 5.63 10.71L5.63 10.71L5.63 10.71Q5.63 11.68 4.87 12.21L4.87 12.21L4.87 12.21Q4.10 12.74 3.08 12.74L3.08 12.74L3.08 12.74Q2.11 12.74 1.47 12.47L1.47 12.47L1.47 12.47Q0.82 12.19 0.36 11.72L0.36 11.72L1.42 10.53L1.42 10.53Q1.88 11.08 2.86 11.17L2.86 11.17L2.86 11.17Q3.64 11.17 3.87 10.91L3.87 10.91L3.87 10.91Q4.10 10.66 3.94 10.40L3.94 10.40L3.94 10.40Q3.78 10.14 2.86 10.06L2.86 10.06L2.86 10.06Q2.02 9.96 1.33 9.54L1.33 9.54L1.33 9.54Q0.64 9.13 0.64 7.97L0.64 7.97L0.64 7.97Q0.64 6.91 1.43 6.35L1.43 6.35L1.43 6.35Q2.21 5.80 3.05 5.80L3.05 5.80ZM11.15 10.25L11.15 10.25L11.15 5.83L13.06 5.83L13.06 12.67L11.15 12.67L11.15 12.05L11.15 12.05Q10.46 12.67 9.51 12.67L9.51 12.67L9.51 12.67Q8.21 12.67 7.53 11.88L7.53 11.88L7.53 11.88Q6.84 11.09 6.84 10.07L6.84 10.07L6.84 5.83L8.76 5.83L8.76 9.59L8.76 9.59Q8.76 10.27 9.10 10.65L9.10 10.65L9.10 10.65Q9.44 11.03 10.13 11.05L10.13 11.05L10.13 11.05Q10.73 11.01 11.15 10.25ZM16.60 15.55L14.69 15.54L14.69 6.04L16.60 5.83L16.60 6.38L16.60 6.38Q17.37 5.83 18.11 5.83L18.11 5.83L18.11 5.83Q19.68 5.83 20.60 6.86L20.60 6.86L20.60 6.86Q21.53 7.88 21.53 9.25L21.53 9.25L21.53 9.25Q21.53 10.62 20.60 11.64L20.60 11.64L20.60 11.64Q19.68 12.67 18.11 12.67L18.11 12.67L18.11 12.67Q17.08 12.60 16.60 12.11L16.60 12.11L16.60 15.55ZM16.60 8.63L16.60 8.63L16.60 9.74L16.60 9.74Q16.74 10.89 18.04 11.09L18.04 11.09L18.04 11.09Q19.68 10.96 19.89 9.39L19.89 9.39L19.89 9.39Q19.82 7.47 18.04 7.40L18.04 7.40L18.04 7.40Q16.74 7.61 16.60 8.63ZM24.78 15.55L22.87 15.54L22.87 6.04L24.78 5.83L24.78 6.38L24.78 6.38Q25.55 5.83 26.28 5.83L26.28 5.83L26.28 5.83Q27.86 5.83 28.78 6.86L28.78 6.86L28.78 6.86Q29.70 7.88 29.70 9.25L29.70 9.25L29.70 9.25Q29.70 10.62 28.78 11.64L28.78 11.64L28.78 11.64Q27.86 12.67 26.28 12.67L26.28 12.67L26.28 12.67Q25.26 12.60 24.78 12.11L24.78 12.11L24.78 15.55ZM24.78 8.63L24.78 8.63L24.78 9.74L24.78 9.74Q24.92 10.89 26.22 11.09L26.22 11.09L26.22 11.09Q27.86 10.96 28.06 9.39L28.06 9.39L28.06 9.39Q27.99 7.47 26.22 7.40L26.22 7.40L26.22 7.40Q24.92 7.61 24.78 8.63ZM34.16 12.74L34.16 12.74Q32.67 12.74 31.67 11.74L31.67 11.74L31.67 11.74Q30.67 10.74 30.67 9.26L30.67 9.26L30.67 9.26Q30.67 7.77 31.67 6.77L31.67 6.77L31.67 6.77Q32.67 5.77 34.16 5.77L34.16 5.77L34.16 5.77Q35.65 5.77 36.65 6.77L36.65 6.77L36.65 6.77Q37.65 7.77 37.65 9.26L37.65 9.26L37.65 9.26Q37.65 10.75 36.65 11.74L36.65 11.74L36.65 11.74Q35.65 12.74 34.16 12.74L34.16 12.74ZM34.15 11.09L34.15 11.09L34.15 11.09Q34.93 11.09 35.42 10.56L35.42 10.56L35.42 10.56Q35.90 10.04 35.90 9.26L35.90 9.26L35.90 9.26Q35.90 8.48 35.42 7.96L35.42 7.96L35.42 7.96Q34.93 7.43 34.15 7.43L34.15 7.43L34.15 7.43Q33.37 7.43 32.89 7.96L32.89 7.96L32.89 7.96Q32.40 8.48 32.40 9.26L32.40 9.26L32.40 9.26Q32.40 10.04 32.89 10.56L32.89 10.56L32.89 10.56Q33.37 11.09 34.15 11.09ZM40.71 5.83L40.71 6.59L40.71 6.59Q41.44 5.84 42.49 5.84L42.49 5.84L42.49 5.84Q42.83 5.84 43.13 5.89L43.13 5.89L42.83 7.78L42.83 7.78Q42.49 7.48 41.87 7.46L41.87 7.46L41.87 7.46Q41.17 7.51 40.71 8.47L40.71 8.47L40.71 12.67L38.79 12.67L38.79 6.04L40.71 5.83ZM48.60 12.35L48.60 12.35Q48.11 12.67 47.48 12.67L47.48 12.67L47.48 12.67Q46.31 12.67 45.63 12.02L45.63 12.02L45.63 12.02Q44.95 11.38 44.95 10.35L44.95 10.35L44.95 7.39L43.92 7.39L43.92 5.84L44.95 5.84L44.95 3.99L46.87 3.79L46.87 5.84L47.89 5.84L47.89 7.39L46.87 7.39L46.87 10.08L46.87 10.08Q46.87 10.62 47.10 10.85L47.10 10.85L47.10 10.85Q47.33 11.07 47.69 11.07L47.69 11.07L47.69 11.07Q47.80 11.07 48.20 10.98L48.20 10.98L48.60 12.35Z"></path></g><!----><!----></svg>